/* XPM */
static char *dc3330d2710f49f7cb29d84d4e8b02d8whIA763jiNonNZDX[] = {
/* columns rows colors chars-per-pixel */
"40 40 17 1 ",
"  c None",
". c #07060E",
"X c #330D1D",
"o c #3E2A10",
"O c #101F31",
"+ c #600920",
"@ c #6E4618",
"# c #9E1D18",
"$ c #D12E28",
"% c #9E6524",
"& c #F35852",
"* c #C8873D",
"= c #E4A45E",
"- c #305682",
"; c #5382B9",
": c #80C2FF",
"> c white",
/* pixels */
"                                        ",
"                                        ",
"                                        ",
"                                        ",
"                                        ",
"                                        ",
"                                        ",
"                                        ",
"                                        ",
"                                        ",
"                                        ",
"                                        ",
"                                        ",
"                                        ",
"                                        ",
"                                        ",
"                                        ",
"                                        ",
"        ===  ===                        ",
"       =>;===>;==                       ",
"       :O-%*:O-%*     $$$$$$$           ",
"       ;--**;--**   &&&&$$$$$$$         ",
"        ***@ ***@  &&&&&&$$$$###        ",
"          @@   @@ &&&&&&&#+++++##       ",
"         %%@  %%@ &&&&&&#X+++++++#      ",
"        %%%  %%%  &&&&&#X+#####+++      ",
"        %%   %%  $$&&&#X+$$$$###+++     ",
"        %==*%%%  $$$$$X+$$&$#++##++     ",
"        ====**%%#$$$$#X#$&$#+XX+#+X     ",
"       *====***%##$$$+X$$$#+XXXX+#X     ",
"       **==*****###$$XX$$$+XX##XX#X     ",
"       ======***###$#XX#$$XX##X+XXX     ",
"       %%%%%==**###$#XX+##+X+XXXXX+     ",
"        ****%***$$$$$+X++##+XXXX++      ",
"       *********o.+$$$+X+++##+++++      ",
"       ********%@o..$$##XX+++++++       ",
"       *******%@@@o..+####$$$$$##       ",
"        *****%@@@@@o...#####$$$$$$      ",
"         %%%%%@@@@@ooo............      ",
"          %%%@@@@@@ooooooo.........     "
};
